<svg viewBox="0 0 24 24" height="24" width="24" xmlns="http://www.w3.org/2000/svg" xml:space="preserve" style="fill-rule:evenodd;clip-rule:evenodd;stroke-linejoin:round;stroke-miterlimit:2"><path d="M12 4c2.233 0 4.125.775 5.675 2.325C19.225 7.875 20 9.767 20 12c0 2.233-.775 4.125-2.325 5.675C16.125 19.225 14.233 20 12 20c-2.233 0-4.125-.775-5.675-2.325C4.775 16.125 4 14.233 4 12c0-2.233.775-4.125 2.325-5.675C7.875 4.775 9.767 4 12 4Zm0 11.5c.8 0 1.517-.229 2.15-.687A3.732 3.732 0 0 0 15.5 13h-7c.267.75.717 1.354 1.35 1.813.633.458 1.35.687 2.15.687ZM8.5 10c0 .283.096.521.288.712A.965.965 0 0 0 9.5 11a.969.969 0 0 0 .713-.288A.968.968 0 0 0 10.5 10a.968.968 0 0 0-.287-.712A.969.969 0 0 0 9.5 9a.965.965 0 0 0-.712.288A.965.965 0 0 0 8.5 10Zm5 0c0 .283.096.521.288.712A.965.965 0 0 0 14.5 11a.969.969 0 0 0 .713-.288A.968.968 0 0 0 15.5 10a.968.968 0 0 0-.287-.712A.969.969 0 0 0 14.5 9a.965.965 0 0 0-.712.288.965.965 0 0 0-.288.712ZM1 6V3c0-.55.196-1.021.588-1.413A1.926 1.926 0 0 1 3 1h3v2H3v3H1Zm5 17H3c-.55 0-1.021-.196-1.412-.587A1.927 1.927 0 0 1 1 21v-3h2v3h3v2Zm12 0v-2h3v-3h2v3a1.93 1.93 0 0 1-.587 1.413A1.93 1.93 0 0 1 21 23h-3Zm3-17V3h-3V1h3c.55 0 1.021.196 1.413.587.391.392.587.863.587 1.413v3h-2Z" style="fill-rule:nonzero"/></svg>